HIERARCHY
ROOT Hips
{
  OFFSET -8.84179 20.0128 0.897337
  CHANNELS 6 Xposition Yposition Zposition Zrotation Xrotation Yrotation
  JOINT Bip01_Pelvis
  {
    OFFSET 0 0 0
    CHANNELS 6 Xposition Yposition Zposition Zrotation Xrotation Yrotation
    JOINT BN_Tail_01
    {
      OFFSET -1.24087 -0.718302 0
      CHANNELS 6 Xposition Yposition Zposition Zrotation Xrotation Yrotation
      JOINT BN_Tail_02
      {
        OFFSET 6.82381 0 0
        CHANNELS 6 Xposition Yposition Zposition Zrotation Xrotation Yrotation
        JOINT BN_Tail_03
        {
          OFFSET 8.76082 0 0
          CHANNELS 6 Xposition Yposition Zposition Zrotation Xrotation Yrotation
          JOINT BN_Tail_04
          {
            OFFSET 7.66999 0 0
            CHANNELS 6 Xposition Yposition Zposition Zrotation Xrotation Yrotation
            End Site
            {
              OFFSET 0 0 0
            }
          }
        }
      }
    }
    JOINT Bip01_Spine
    {
      OFFSET 1.33812 0.096014 0.0297562
      CHANNELS 6 Xposition Yposition Zposition Zrotation Xrotation Yrotation
      JOINT Bip01_R_Thigh
      {
        OFFSET -1.30135 0.103306 -2.49297
        CHANNELS 6 Xposition Yposition Zposition Zrotation Xrotation Yrotation
        JOINT Bip01_R_Calf
        {
          OFFSET 8.39601 0 0
          CHANNELS 6 Xposition Yposition Zposition Zrotation Xrotation Yrotation
          JOINT Bip01_R_HorseLink
          {
            OFFSET 9.35807 0 0
            CHANNELS 6 Xposition Yposition Zposition Zrotation Xrotation Yrotation
            JOINT Bip01_R_Foot
            {
              OFFSET 4.27819 0 0
              CHANNELS 6 Xposition Yposition Zposition Zrotation Xrotation Yrotation
              JOINT Bip01_R_Toe0
              {
                OFFSET 1.32445 2.68719 0
                CHANNELS 6 Xposition Yposition Zposition Zrotation Xrotation Yrotation
                JOINT Bip01_R_Toe0Nub
                {
                  OFFSET 0.282271 0 0
                  CHANNELS 6 Xposition Yposition Zposition Zrotation Xrotation Yrotation
                  End Site
                  {
                    OFFSET 0 0 0
                  }
                }
              }
            }
          }
        }
      }
      JOINT Bip01_L_Thigh
      {
        OFFSET -1.37978 -0.0398788 2.39225
        CHANNELS 6 Xposition Yposition Zposition Zrotation Xrotation Yrotation
        JOINT Bip01_L_Calf
        {
          OFFSET 8.39601 0 0
          CHANNELS 6 Xposition Yposition Zposition Zrotation Xrotation Yrotation
          JOINT Bip01_L_HorseLink
          {
            OFFSET 9.35808 0 0
            CHANNELS 6 Xposition Yposition Zposition Zrotation Xrotation Yrotation
            JOINT Bip01_L_Foot
            {
              OFFSET 4.27819 0 0
              CHANNELS 6 Xposition Yposition Zposition Zrotation Xrotation Yrotation
              JOINT Bip01_L_Toe0
              {
                OFFSET 1.32445 2.68719 0
                CHANNELS 6 Xposition Yposition Zposition Zrotation Xrotation Yrotation
                JOINT Bip01_L_Toe0Nub
                {
                  OFFSET 0.282267 0 0
                  CHANNELS 6 Xposition Yposition Zposition Zrotation Xrotation Yrotation
                  End Site
                  {
                    OFFSET 0 0 0
                  }
                }
              }
            }
          }
        }
      }
      JOINT Bip01_Spine1
      {
        OFFSET 4.77812 -0.00598526 -2.03848e-005
        CHANNELS 6 Xposition Yposition Zposition Zrotation Xrotation Yrotation
        JOINT Bip01_Spine2
        {
          OFFSET 7.52904 -0.00557518 -8.38637e-005
          CHANNELS 6 Xposition Yposition Zposition Zrotation Xrotation Yrotation
          JOINT Bip01_Neck
          {
            OFFSET 8.17986 0.436998 0.000127075
            CHANNELS 6 Xposition Yposition Zposition Zrotation Xrotation Yrotation
            JOINT Bip01_R_Clavicle
            {
              OFFSET -2.1244 -3.91239 -2.44847
              CHANNELS 6 Xposition Yposition Zposition Zrotation Xrotation Yrotation
              JOINT Bip01_R_UpperArm
              {
                OFFSET 6.62478 0 0
                CHANNELS 6 Xposition Yposition Zposition Zrotation Xrotation Yrotation
                JOINT Bip01_R_Forearm
                {
                  OFFSET 7.46098 0 0
                  CHANNELS 6 Xposition Yposition Zposition Zrotation Xrotation Yrotation
                  JOINT Bip01_R_Hand
                  {
                    OFFSET 7.80543 0 0
                    CHANNELS 6 Xposition Yposition Zposition Zrotation Xrotation Yrotation
                    JOINT Bip01_R_Finger0
                    {
                      OFFSET 2.2294 0.674378 0.135623
                      CHANNELS 6 Xposition Yposition Zposition Zrotation Xrotation Yrotation
                      JOINT Bip01_R_Finger0Nub
                      {
                        OFFSET 3.57154 0 0
                        CHANNELS 6 Xposition Yposition Zposition Zrotation Xrotation Yrotation
                        End Site
                        {
                          OFFSET 0 0 0
                        }
                      }
                    }
                  }
                }
              }
            }
            JOINT Bip01_L_Clavicle
            {
              OFFSET -2.28998 -4.09919 1.94072
              CHANNELS 6 Xposition Yposition Zposition Zrotation Xrotation Yrotation
              JOINT Bip01_L_UpperArm
              {
                OFFSET 6.62478 0 0
                CHANNELS 6 Xposition Yposition Zposition Zrotation Xrotation Yrotation
                JOINT Bip01_L_Forearm
                {
                  OFFSET 7.46098 0 0
                  CHANNELS 6 Xposition Yposition Zposition Zrotation Xrotation Yrotation
                  JOINT Bip01_L_Hand
                  {
                    OFFSET 7.80543 0 0
                    CHANNELS 6 Xposition Yposition Zposition Zrotation Xrotation Yrotation
                    JOINT Bip01_L_Finger0
                    {
                      OFFSET 2.2294 0.674378 -0.135623
                      CHANNELS 6 Xposition Yposition Zposition Zrotation Xrotation Yrotation
                      JOINT Bip01_L_Finger0Nub
                      {
                        OFFSET 3.57153 0 0
                        CHANNELS 6 Xposition Yposition Zposition Zrotation Xrotation Yrotation
                        End Site
                        {
                          OFFSET 0 0 0
                        }
                      }
                    }
                  }
                }
              }
            }
            JOINT Bip01_Neck1
            {
              OFFSET 3.78076 -0.00285482 1.52588e-005
              CHANNELS 6 Xposition Yposition Zposition Zrotation Xrotation Yrotation
              JOINT Bip01_Head
              {
                OFFSET 3.62738 0 0
                CHANNELS 6 Xposition Yposition Zposition Zrotation Xrotation Yrotation
                JOINT BN_Beard_L
                {
                  OFFSET 6.36381 2.6665 1.018
                  CHANNELS 6 Xposition Yposition Zposition Zrotation Xrotation Yrotation
                  End Site
                  {
                    OFFSET 0 0 0
                  }
                }
                JOINT BN_Beard_R
                {
                  OFFSET 6.3638 2.6665 -1.01806
                  CHANNELS 6 Xposition Yposition Zposition Zrotation Xrotation Yrotation
                  End Site
                  {
                    OFFSET 0 0 0
                  }
                }
                JOINT BN_Mouth
                {
                  OFFSET 0.165208 0.881832 -2.79663e-005
                  CHANNELS 6 Xposition Yposition Zposition Zrotation Xrotation Yrotation
                  JOINT BN_Thouge_01
                  {
                    OFFSET 4.3022 0.00850105 0
                    CHANNELS 6 Xposition Yposition Zposition Zrotation Xrotation Yrotation
                    JOINT BN_Thouge_02
                    {
                      OFFSET 1.50253 0 0
                      CHANNELS 6 Xposition Yposition Zposition Zrotation Xrotation Yrotation
                      End Site
                      {
                        OFFSET 0 0 0
                      }
                    }
                  }
                }
                JOINT BN_Ear_L
                {
                  OFFSET 1.27954 -1.37165 2.10918
                  CHANNELS 6 Xposition Yposition Zposition Zrotation Xrotation Yrotation
                  End Site
                  {
                    OFFSET 0 0 0
                  }
                }
                JOINT BN_Ear_R
                {
                  OFFSET 1.27953 -1.37164 -2.1093
                  CHANNELS 6 Xposition Yposition Zposition Zrotation Xrotation Yrotation
                  End Site
                  {
                    OFFSET 0 0 0
                  }
                }
                JOINT Bip01_HeadNub
                {
                  OFFSET 7.94507 0 0
                  CHANNELS 6 Xposition Yposition Zposition Zrotation Xrotation Yrotation
                  End Site
                  {
                    OFFSET 0 0 0
                  }
                }
              }
            }
          }
        }
      }
    }
  }
}
MOTION
Frames:	4
Frame Time:	0.0333333
-8.48001 4.84858 -1.41031e-009 130.957 -89.0403 136.744 -1.77636e-015 -9.09474e-013 -4.44089e-016 -89.9707 1.28936 -87.8723 -1.24088 -0.718302 2.5332e-006 38.6086 12.2699 108.124 6.82381 -7.10543e-015 3.33786e-006 -57.8581 -29.0228 -121.353 8.76082 5.00679e-006 2.86102e-006 3.99183 21.9753 -44.3041 7.66999 5.96047e-008 -8.88178e-016 -26.7896 -31.1467 1.96759 1.33942 0.0444269 0.0595427 -2.12066 -0.118351 -0.0222524 -1.35462 -0.108752 -2.49335 -107.454 -10.4505 167.335 8.39601 -1.77636e-015 2.38419e-007 -142.04 -1.52418e-005 -1.73934e-006 9.35807 4.76837e-007 2.38419e-007 153.574 1.48794e-005 6.4726e-006 4.2782 -2.38419e-007 2.38419e-007 -115.315 -9.48554 -13.9159 1.32445 2.68719 -4.89635e-011 90 -1.72941e-005 -1.00471e-005 0.282265 -8.5129e-010 0 -1.23708e-008 -1.11798e-008 9.79322e-009 -1.31697 -0.11727 2.39445 -104.997 15.2412 -166.268 8.39601 0 -4.44089e-016 -138.564 -8.79953e-006 5.79917e-006 9.35808 5.32907e-015 4.44089e-016 157.992 -4.79613e-006 -1.35944e-005 4.27819 -2.38419e-007 -2.38419e-007 -120.946 7.28448 16.4736 1.32445 2.68719 3.10862e-015 89.0865 0.054853 -0.00374904 0.282265 7.45059e-009 -2.38419e-007 -180 -1.99755e-006 -1.01104e-005 4.78009 -0.00552654 1.2666e-005 28.6115 -0.911627 -0.850734 7.53427 -0.00374126 8.63448e-005 38.5057 -4.92903 -4.585 8.17902 0.438047 -1.77666e-005 -49.919 0.32762 4.48813 -0.248732 -4.58593 -2.17214 -122.272 -71.1933 142.191 6.62478 4.76837e-007 -1.90735e-006 87.3498 -5.16883 -113.641 7.46098 -3.01981e-014 -2.38419e-006 -35.247 5.06701e-006 1.47849e-005 7.80543 -2.38419e-007 1.19209e-007 1.12522 -5.91161 -7.83916 2.2294 0.674378 0.135621 -91.5213 -9.36415 4.21286 3.57154 -4.21885e-015 -1.19209e-007 -180 -1.00151e-005 -9.89904e-008 -0.247406 -4.56107 2.22406 -144.476 79.5075 -122.299 6.62478 1.77636e-015 -3.55271e-015 72.0757 5.63299 100.792 7.46099 1.77636e-015 -1.19209e-007 -38.4847 4.23899e-005 1.02455e-005 7.80544 -4.4409e-015 -1.33227e-015 -0.92882 -15.277 -6.14417 2.2294 0.674378 -0.135623 -83.5664 2.93466 -5.82224 3.57153 -3.99681e-015 8.9407e-008 8.55471e-009 -1.14014e-007 1.58682e-007 3.78079 -0.00284997 7.6145e-006 18.5253 -0.0558944 0.574556 3.62738 0 0 77.3776 3.54954 -2.80127 6.3638 2.6665 1.018 34.8197 -24.7401 -107.97 6.36379 2.6665 -1.01806 -107.128 -29.3143 80.6359 0.165206 0.881834 -2.792e-005 -149.577 7.01671e-015 -180 4.30221 0.00849915 -2.97795e-008 15.0149 -2.48262e-005 -1.13328e-005 1.50253 1.90735e-006 -2.98023e-008 11.687 -1.37021e-005 1.29984e-005 1.27954 -1.37165 2.10918 -144.306 -56.7005 -71.9075 1.27953 -1.37165 -2.1093 4.54413 -71.5554 86.0529 7.94507 -5.72205e-006 2.98023e-008 -3.34797e-007 -4.53865e-012 3.53439e-013 
-8.47064 4.85099 -1.25622e-009 130.917 -89.1002 136.785 0 -9.09495e-013 8.88178e-016 -89.9725 1.35068 -87.8434 -1.24088 -0.718302 2.5332e-006 38.6086 12.2698 108.124 6.82381 1.77636e-015 3.33786e-006 -57.8742 -29.0347 -121.444 8.76082 5.00679e-006 2.86102e-006 3.83957 22.0337 -44.2678 7.66999 5.96047e-008 -1.77636e-015 -27.7053 -30.7513 2.24525 1.33942 0.0444269 0.0595427 -2.34964 -0.117521 -0.0515698 -1.35462 -0.108752 -2.49335 -107.224 -10.4615 167.349 8.39601 -2.66454e-015 2.38419e-007 -142.102 -1.52429e-005 -1.75472e-006 9.35807 4.76837e-007 2.38419e-007 153.58 1.46855e-005 6.85498e-006 4.2782 -2.38419e-007 2.38419e-007 -115.25 -9.52046 -13.9608 1.32445 2.68719 -4.7677e-011 90 -1.72941e-005 -1.00472e-005 0.282265 -8.51291e-010 -2.66454e-015 -1.23708e-008 -1.11798e-008 9.79322e-009 -1.31697 -0.11727 2.39445 -104.7 15.2287 -166.254 8.39601 4.44089e-015 1.77636e-015 -138.607 -8.22757e-006 6.44644e-006 9.35808 2.66454e-015 0 158.038 -8.06694e-006 -5.50679e-006 4.27819 -2.38419e-007 -2.38419e-007 -120.855 7.28051 16.4083 1.32445 2.68719 -1.33227e-015 89.0865 0.054853 -0.00374907 0.282265 7.45059e-009 -2.38419e-007 -180 -1.99755e-006 -1.01104e-005 4.78009 -0.00552654 1.2666e-005 28.5677 -0.946442 -0.862665 7.53427 -0.00374126 8.63448e-005 38.539 -4.75983 -4.62104 8.17902 0.438047 -1.77666e-005 -51.2888 0.199586 4.38478 -0.248732 -4.58593 -2.17214 -121.013 -71.2942 142.468 6.62478 4.76837e-007 -1.90735e-006 87.8781 -4.70192 -113.445 7.46098 -2.30926e-014 -2.38419e-006 -33.1518 1.01299e-005 7.71281e-006 7.80543 -2.38419e-007 1.19209e-007 0.152492 -5.96947 -7.86353 2.2294 0.674378 0.135621 -90.1855 -9.69086 4.2651 3.57154 -6.66134e-016 -1.19209e-007 -180 -1.00151e-005 -9.89904e-008 -0.247406 -4.56107 2.22406 -142.695 79.4249 -122.614 6.62478 1.77636e-015 0 72.2224 5.09893 100.861 7.46099 4.44089e-015 -1.19209e-007 -37.6159 2.58071e-005 3.12578e-005 7.80544 0 -6.66134e-016 -0.849719 -15.2337 -5.95771 2.2294 0.674378 -0.135623 -83.7074 2.94901 -5.81501 3.57153 -9.76998e-015 8.9407e-008 8.55471e-009 -1.14014e-007 1.58682e-007 3.78079 -0.00284997 7.6145e-006 18.5368 0.538355 0.552268 3.62738 1.77636e-015 7.21645e-016 77.8516 4.26038 -2.39705 6.3638 2.6665 1.018 37.8355 -25.1263 -108.656 6.36379 2.6665 -1.01806 -107.65 -29.6068 79.5091 0.165206 0.881834 -2.79197e-005 -150.539 1.52588e-005 -180 4.30221 0.00849915 -2.97732e-008 15.0149 -0.000111808 1.1988e-005 1.50253 1.90735e-006 -2.98023e-008 11.687 -8.59486e-005 2.79389e-005 1.27954 -1.37165 2.10918 -142.522 -56.417 -70.1974 1.27953 -1.37165 -2.1093 5.58491 -71.2043 88.3866 7.94507 -5.72205e-006 2.98023e-008 -3.34797e-007 -4.53746e-012 3.53837e-013 
-8.46128 4.85321 -1.10904e-009 130.875 -89.1604 136.825 1.77636e-015 -9.09502e-013 4.44089e-016 -89.9744 1.41086 -87.8151 -1.24088 -0.718302 2.5332e-006 38.6086 12.2698 108.124 6.82381 -5.32907e-015 3.33786e-006 -57.8895 -29.0458 -121.535 8.76082 5.00679e-006 2.86102e-006 3.68798 22.0928 -44.2315 7.66999 5.96047e-008 8.88178e-016 -28.6257 -30.3446 2.51281 1.33942 0.0444269 0.0595427 -2.7569 -0.116188 -0.0807765 -1.35462 -0.108752 -2.49335 -106.819 -10.4734 167.364 8.39601 -8.88178e-016 2.38419e-007 -142.164 -9.53166e-006 5.58431e-006 9.35807 4.76837e-007 2.38419e-007 153.585 1.70655e-005 2.0558e-006 4.2782 -2.38419e-007 2.38419e-007 -115.184 -9.5553 -14.0061 1.32445 2.68719 -4.55631e-011 90 -1.72941e-005 -1.00472e-005 0.282265 -8.51288e-010 -8.88179e-016 -1.23708e-008 -1.11798e-008 9.79322e-009 -1.31697 -0.11727 2.39445 -104.228 15.2161 -166.24 8.39601 -8.88179e-016 1.33227e-015 -138.651 -1.006e-005 4.36354e-006 9.35808 -6.21725e-015 -1.77636e-015 158.084 -1.50152e-005 1.17587e-005 4.27819 -2.38419e-007 -2.38419e-007 -120.765 7.27595 16.3429 1.32445 2.68719 1.77636e-015 89.0865 0.054853 -0.00374904 0.282265 7.45059e-009 -2.38419e-007 -180 -1.99755e-006 -1.01104e-005 4.78009 -0.00552654 1.2666e-005 28.7413 -0.958 -0.864263 7.53427 -0.00374126 8.63448e-005 38.875 -4.65139 -4.56488 8.17902 0.438047 -1.77665e-005 -52.6253 0.0833901 4.26938 -0.248732 -4.58593 -2.17214 -119.814 -71.3968 142.766 6.62478 4.76837e-007 -1.90735e-006 88.0812 -4.51396 -113.343 7.46098 -2.70895e-014 -2.38419e-006 -32.3386 9.05814e-006 9.44229e-006 7.80543 -2.38419e-007 1.19209e-007 -0.187561 -5.95573 -7.82801 2.2294 0.674378 0.135621 -88.5811 -10.0115 4.3746 3.57154 -3.10863e-015 -1.19209e-007 -180 -1.00151e-005 -9.89904e-008 -0.247406 -4.56107 2.22406 -140.906 79.3397 -122.973 6.62478 0 0 72.3522 4.93045 100.903 7.46099 2.66454e-015 -1.19209e-007 -38.0784 2.94577e-005 2.64745e-005 7.80544 2.22045e-015 -3.33067e-016 -0.140234 -15.1967 -5.74698 2.2294 0.674378 -0.135623 -83.8473 2.96323 -5.80779 3.57153 -2.22045e-015 8.9407e-008 8.55471e-009 -1.14014e-007 1.58682e-007 3.78079 -0.00284997 7.6145e-006 18.5271 1.11475 0.526745 3.62738 3.55271e-015 7.21645e-016 77.9861 4.93195 -2.05478 6.3638 2.6665 1.018 40.9185 -25.5211 -109.295 6.36379 2.6665 -1.01806 -108.151 -29.8533 78.3946 0.165206 0.881834 -2.79195e-005 -151.439 -0.018219 -179.995 4.30221 0.00849915 -2.97662e-008 15.0149 -3.11627e-005 -9.65228e-006 1.50253 1.90735e-006 -2.98023e-008 11.687 -6.00117e-006 2.92787e-006 1.27954 -1.37165 2.10918 -140.823 -56.1707 -68.2758 1.27953 -1.37165 -2.1093 6.34201 -70.593 90.8402 7.94507 -5.72205e-006 2.98023e-008 -3.34797e-007 -4.53627e-012 3.50656e-013 
-8.45186 4.85528 -9.67735e-010 130.834 -89.2212 136.866 -1.77636e-015 -9.09481e-013 0 -89.9762 1.47051 -87.7871 -1.24088 -0.718302 2.5332e-006 38.6086 12.2699 108.124 6.82381 -1.77636e-015 3.33786e-006 -57.9043 -29.0561 -121.626 8.76082 5.00679e-006 2.86102e-006 3.53647 22.1528 -44.1951 7.66999 5.96047e-008 -1.77636e-015 -29.553 -29.9249 2.77362 1.33942 0.0444269 0.0595427 -3.28896 -0.114184 -0.109967 -1.35462 -0.108752 -2.49335 -106.291 -10.4853 167.378 8.39601 -8.88178e-016 2.38419e-007 -142.228 -1.01935e-005 4.73244e-006 9.35807 4.76837e-007 2.38419e-007 153.591 1.50814e-005 6.04195e-006 4.2782 -2.38419e-007 2.38419e-007 -115.119 -9.59021 -14.052 1.32445 2.68719 -4.31544e-011 90 -1.72941e-005 -1.00473e-005 0.282265 -8.51291e-010 -4.44089e-016 -1.23708e-008 -1.11798e-008 9.79322e-009 -1.31697 -0.11727 2.39445 -103.632 15.2033 -166.226 8.39601 -2.66454e-015 1.77636e-015 -138.697 3.85429e-006 2.0196e-005 9.35808 -8.88179e-016 -1.77636e-015 158.13 -7.24896e-006 -7.55368e-006 4.27819 -2.38419e-007 -2.38419e-007 -120.673 7.2708 16.2771 1.32445 2.68719 0 89.0865 0.054853 -0.00374904 0.282265 7.45059e-009 -2.38419e-007 -180 -1.99755e-006 -1.01104e-005 4.78009 -0.00552654 1.2666e-005 29.0637 -0.951227 -0.858162 7.53427 -0.00374126 8.63448e-005 39.4467 -4.58271 -4.43504 8.17902 0.438047 -1.77663e-005 -53.9359 -0.0197315 4.13997 -0.248732 -4.58593 -2.17214 -118.676 -71.5043 143.035 6.62478 4.76837e-007 -1.90735e-006 88.016 -4.59125 -113.316 7.46098 -2.22045e-014 -2.38419e-006 -32.6763 9.69914e-006 8.37767e-006 7.80543 -2.38419e-007 1.19209e-007 0.0446469 -5.90312 -7.73975 2.2294 0.674378 0.135621 -86.8966 -10.3051 4.51919 3.57154 5.99521e-015 -1.19209e-007 -180 -1.00151e-005 -9.89905e-008 -0.247406 -4.56107 2.22406 -139.087 79.2509 -123.39 6.62478 1.77636e-015 -7.10543e-015 72.4713 5.01479 100.933 7.46099 7.10543e-015 -1.19209e-007 -39.5103 2.482e-005 3.20338e-005 7.80544 5.32907e-015 -1.11022e-015 1.03194 -15.1638 -5.51568 2.2294 0.674378 -0.135623 -83.9873 2.97741 -5.80054 3.57153 -1.02141e-014 8.9407e-008 8.55471e-009 -1.14014e-007 1.58682e-007 3.78079 -0.00284997 7.6145e-006 18.4927 1.67223 0.49754 3.62738 1.77636e-015 5.55112e-016 77.8664 5.56161 -1.75491 6.3638 2.6665 1.018 43.8226 -25.8614 -109.888 6.36379 2.6665 -1.01806 -108.621 -30.0419 77.3531 0.165206 0.881834 -2.79194e-005 -152.262 -0.00965881 -179.998 4.30221 0.00849915 -2.97589e-008 15.0149 -6.78922e-005 1.91779e-007 1.50253 1.90735e-006 -2.98023e-008 11.687 -9.61026e-005 2.17543e-005 1.27954 -1.37165 2.10918 -139.207 -55.935 -66.213 1.27953 -1.37165 -2.1093 6.81201 -69.7589 93.288 7.94507 -5.72205e-006 2.98023e-008 -3.34797e-007 -4.53706e-012 3.52246e-013 
